<svg xmlns="http://www.w3.org/2000/svg" viewBox="0 0 600 600"><defs><style>.cls-1{fill:#a99985;}.cls-2{fill:#fff;}</style></defs><title>Logo Vance</title><g id="Layer_4" data-name="Layer 4"><rect class="cls-1" width="600" height="600"/><path class="cls-2" d="M30,30V570H570V30ZM550,550H50V50H550Z" transform="translate(0 0)"/><path class="cls-2" d="M167.17,255.54l-35.75,94.38H114.67L78.1,255.54H98.39l24.54,66.3,24.18-66.3Z" transform="translate(0 0)"/><path class="cls-2" d="M255.29,349.92h-20L226.51,331H180.74l-8.85,18.88H151.83l44.6-94.38H210.7Zm-36-34.09-15.69-34-15.92,34Z" transform="translate(0 0)"/><path class="cls-2" d="M343.18,349.92H325.25l-42.59-66.18v66.18H264.73V255.54h20.52l40,61.58V255.54h17.93Z" transform="translate(0 0)"/><path class="cls-2" d="M447.11,332.93a52.46,52.46,0,0,1-17.17,13.69,48.81,48.81,0,0,1-22.24,5.07A51.16,51.16,0,0,1,372,337.41a48.91,48.91,0,0,1-10.73-15.51,48.72,48.72,0,0,1,0-38.34,49.11,49.11,0,0,1,26.74-26,51.35,51.35,0,0,1,19.7-3.78,48.81,48.81,0,0,1,22.24,5.08,51.3,51.3,0,0,1,16.81,13.21l-12.62,13A33.21,33.21,0,0,0,422.86,275a31.89,31.89,0,0,0-27.6-1.3,33.46,33.46,0,0,0-10.21,6.84,32.53,32.53,0,0,0-6.9,10,29.84,29.84,0,0,0-2.53,12.21,29.48,29.48,0,0,0,2.53,12.09,32.29,32.29,0,0,0,6.9,10,33.28,33.28,0,0,0,10.21,6.84,30.9,30.9,0,0,0,12.44,2.54,30,30,0,0,0,15.46-4,35.26,35.26,0,0,0,11.21-10.44Z" transform="translate(0 0)"/><path class="cls-2" d="M519,349.92H456.66V255.66H519v15.1H474.59v22.53h43.77V308H474.59V334H519Z" transform="translate(0 0)"/></g><g id="Layer_3" data-name="Layer 3"><path class="cls-2" d="M366.43,379.25" transform="translate(0 0)"/><path class="cls-2" d="M427.88,303.43c-1.47-3.24-3.94-7.34-6.19-9-1.83-1.46-1.1,2.38-4,4.57s-7.21,4.5-11.41-1.06c-.22-.3-.44-.61-.66-.95-.18-.54-1.27-.73-1.27-.73s-3,8.25-7.87,14.14c-2.68,3.25-5.92,5.79-9.5,5.79a4.69,4.69,0,0,0-.46,2.92,1.86,1.86,0,0,0,.1.37c.54,1.64,6,2.92,12.06,1.64S410,319.66,409.81,316c0-1.46,2.74-3.1,5.12-1.46s14.25-5.12,14.25-7.13A12.87,12.87,0,0,0,427.88,303.43Z" transform="translate(0 0)"/><path class="cls-2" d="M409.72,298.13a4.66,4.66,0,0,0,3,.82h0s2.58-.54,1.42-2.56a2.48,2.48,0,0,0-1.82-1s2.26-.62,3.79,2.11c1.66-1.33,2.75-3.17,2.75-3.92a3.31,3.31,0,0,1-2.28.77s3.81-3.05,3-6.86c0,0-2.28,2.29-3.8,2.29a9,9,0,0,0,.76-9.91s-.76,6.86-4.57,9.91S405.15,295.08,409.72,298.13Z" transform="translate(0 0)"/></g></svg>